<svg version="1.1" xmlns="http://www.w3.org/2000/svg" style="display: block;" viewBox="0 0 2048 2048" width="1024" height="1024" preserveAspectRatio="none">
<defs>
	<linearGradient id="Gradient1" gradientUnits="userSpaceOnUse" x1="338.765" y1="1371.6" x2="364.235" y2="1368.4">
		<stop class="stop0" offset="0" stop-opacity="1" stop-color="rgb(11,18,18)"/>
		<stop class="stop1" offset="1" stop-opacity="1" stop-color="rgb(35,28,31)"/>
	</linearGradient>
</defs>
<path transform="translate(0,0)" fill="rgb(29,35,43)" d="M 450.112 463.684 C 611.727 459.927 785.192 398.614 925.203 320.466 C 946.714 308.46 1005.68 272.515 1023.66 256.395 C 1091.95 306.042 1165.83 347.491 1243.79 379.888 C 1259.69 386.557 1288.39 398.278 1304.63 402.545 C 1286.77 422.101 1252.07 453.249 1232.25 471.947 C 1223.13 467.651 1213.1 463.955 1203.76 459.794 C 1185.46 451.477 1167.33 442.816 1149.36 433.814 C 1103.76 410.76 1069.34 388.589 1027.41 360.559 C 1028.42 375.4 1027.53 401.01 1027.49 417.022 C 1027.2 457.663 1027.33 498.306 1027.87 538.945 C 1073.36 538.335 1126.71 549.014 1168.92 565.831 C 1195.27 539.818 1354.39 381.072 1366.52 376.568 C 1373.9 373.825 1453.74 375.602 1468.47 375.604 L 1652.17 375.352 C 1658.87 375.365 1673.49 375.749 1677.33 381.043 C 1685.07 391.719 1682.75 418.099 1682.74 430.846 L 1682.7 492.525 L 1682.91 670.355 C 1682.78 690.51 1680.99 706.688 1655.86 708.201 C 1643.07 708.971 1629.95 708.569 1617.12 708.503 L 1547.1 708.204 C 1485.35 708.126 1423.47 708.689 1361.71 708.542 C 1359.61 708.537 1352.57 708.163 1351.39 707.184 C 1340.56 698.181 1327.52 682.766 1317.67 672.587 C 1310.22 680.316 1302.58 687.865 1294.76 695.225 C 1308.74 709.342 1320.03 724.185 1331.93 740.013 C 1410.29 738.582 1491.93 739.454 1570.5 739.4 L 1657.03 739.397 C 1674.77 739.409 1695.27 738.876 1712.67 740.246 C 1717.05 726.305 1732.23 720.342 1741.42 733.451 C 1744.4 737.677 1745.45 742.959 1744.34 748.004 C 1742.13 757.608 1731.92 760.53 1722.88 758.298 C 1718.59 757.238 1714.61 750.54 1712.84 746.638 C 1673.71 744.866 1622.86 746.31 1582.94 746.332 L 1327.88 746.953 C 1314.61 729.555 1304.4 716.609 1289.67 700.51 C 1282.23 708.795 1271.15 719.258 1263.08 727.321 C 1276.34 740.726 1292.57 762.728 1302.4 779.249 C 1310.97 778.809 1351.79 778.073 1358.14 779.673 C 1358.66 782.759 1358.64 782.582 1358.08 785.67 C 1349.93 786.874 1317 786.091 1307 786.045 C 1328.07 825.995 1344.49 874.816 1347.25 919.885 C 1357.18 919.459 1367.11 919.16 1377.05 918.99 C 1365.93 930.275 1354.63 940.607 1346.18 953.985 L 1394.19 954.022 C 1393.33 906.564 1385.44 868.883 1369.9 824.59 C 1384.29 810.043 1402.31 790.928 1417.77 778.364 C 1497.45 780.123 1577.76 777.813 1657.5 778.859 C 1665.83 778.968 1685.07 776.003 1689.73 783.307 L 1689.09 784.615 C 1684.09 786.907 1609.43 785.974 1598.12 785.964 C 1598.02 858.541 1594.9 912.979 1586.28 984.931 C 1560.47 985.056 1528.76 983.106 1503.86 984.987 C 1505.53 978.049 1506.95 968.622 1508.26 961.441 C 1476.9 959.965 1433.88 961.295 1401.67 961.323 C 1401.83 974.52 1400.47 994.548 1398.6 1007.4 C 1477.22 1007.83 1555.91 1006.19 1634.54 1007.67 C 1643.93 1007.85 1653.7 1006.73 1663.07 1007.82 C 1674.44 1009.07 1684.8 1014.91 1691.76 1023.99 C 1706.82 1043.6 1698.94 1082.48 1700.85 1106.08 C 1701.16 1110.03 1701.25 1118.81 1700.75 1122.69 C 1697.73 1124.58 1699.4 1123.86 1695.05 1123.81 C 1688.17 1116.58 1702.86 1039.86 1683.94 1026.72 C 1678.85 1021.2 1671.29 1016.46 1663.57 1015.66 C 1641.14 1013.32 1616.59 1014.06 1594.07 1014.1 L 1461.87 1014.25 C 1443.59 1014.27 1415.44 1015.47 1398.11 1014.26 C 1397.13 1020.21 1396.02 1026.14 1394.8 1032.04 C 1371.43 1140.58 1307.89 1223.79 1215.63 1283.21 C 1237.44 1308.43 1258.72 1335.29 1279.93 1361.05 L 1354.95 1451.55 L 1318.26 1487.6 C 1328.51 1498.04 1342.01 1508.21 1351 1518.93 C 1352.67 1528.4 1354.58 1556.88 1360.93 1562.09 L 1367.63 1560.86 C 1371.34 1561.97 1387.15 1580.6 1391.25 1585.04 C 1413.99 1609.46 1436.53 1634.07 1458.87 1658.86 C 1472.08 1618.26 1481.09 1588.82 1517.44 1565.1 C 1523.65 1561.05 1540.97 1548.41 1544.88 1543.45 C 1546.79 1536.86 1541.2 1520.48 1539.36 1512.45 C 1509.16 1511.79 1481.98 1520.95 1496.2 1478.91 C 1498.3 1472.7 1500.31 1463 1502.1 1456.31 C 1486.58 1449.07 1483.37 1443.87 1495.88 1429.75 C 1505.18 1419.25 1510.76 1414.88 1513.44 1400.77 C 1515.3 1393.24 1522.17 1381.84 1526.14 1374.68 C 1524.1 1372.83 1522.2 1370.58 1521.01 1368.09 C 1517.57 1360.98 1517.19 1352.78 1519.97 1345.39 C 1523.54 1335.94 1528.99 1332.21 1537.7 1328.45 C 1566.48 1336.5 1597.62 1348.47 1626.17 1357.97 C 1635.09 1360.95 1641.21 1367.65 1643.46 1376.63 C 1645.01 1384.5 1654 1393.28 1655.84 1400.48 C 1662.94 1428.24 1638.57 1469.54 1627.26 1493.95 C 1638.98 1529.21 1656.63 1529.67 1682.33 1551.88 C 1722.7 1586.76 1722.55 1644.84 1725.61 1693.48 L 1732.13 1805.09 C 1740.92 1805.15 1784.71 1803.41 1789.8 1807.23 C 1789.84 1810.86 1785.45 1812.75 1782.41 1812.68 C 1768.93 1812.37 1755.48 1812.32 1742 1812.33 L 1644.83 1812.4 L 1329.47 1812.41 L 702.166 1812.4 C 556.14 1812.22 407.636 1810.93 261.858 1812.54 C 259.39 1811.05 260.257 1812.1 259.45 1809.05 L 260.567 1807.17 C 268.721 1803.47 309.377 1804.99 321.528 1805.01 C 323.515 1792.82 333.994 1763 338.201 1750.25 L 375.854 1638.33 C 308.713 1615.76 302.178 1531.08 361.95 1498.58 C 402.787 1476.38 407.253 1474.83 407.925 1427.04 C 408.188 1408.3 423.354 1384.37 438.378 1372.39 C 466.523 1349.94 526.834 1340.89 550.35 1374.36 C 552.042 1376.83 554.178 1385.88 555.584 1389.22 C 561.825 1404.05 565.091 1419.82 570.678 1434.8 C 572.781 1440.36 583.226 1448.44 586.665 1453.86 C 593.105 1464 584.637 1467.27 577.572 1471.22 C 576.616 1510.42 578.065 1521.77 533.59 1517.81 C 531.51 1530.75 525.806 1550.25 525.437 1562.04 C 525.285 1566.9 532.168 1592.29 533.856 1598.01 C 542.395 1624.84 549.453 1652.42 557.38 1679.34 C 565.129 1705.65 567.677 1714.68 566.684 1741.82 C 572.166 1742.84 579.058 1744.66 584.606 1745.98 C 585.595 1736.21 589.205 1717.45 587.772 1708.02 C 582.658 1674.37 561.277 1641.73 549.691 1609.76 C 546.645 1601.36 542.796 1593.98 541.045 1585.48 C 542.42 1582.14 541.342 1583.47 544.532 1581.48 C 546.36 1582.21 546.613 1581.96 547.35 1583.76 C 552.327 1595.9 557.707 1608.54 562.99 1620.53 C 569.233 1634.59 575.349 1648.7 581.337 1662.87 C 594.376 1693.81 599.95 1711.83 591.534 1746.47 C 611.604 1751.03 634.589 1754.65 655.006 1757.98 L 654.991 1771.41 C 668.634 1771.55 682.277 1771.59 695.921 1771.51 C 720.215 1726.85 746.94 1683.03 770.933 1638.13 C 780.108 1620.97 789.122 1603.91 799.355 1587.33 C 786.541 1577.67 773.831 1567.87 761.226 1557.94 C 745.211 1580.31 715.341 1619.8 697.436 1640.31 C 690.231 1636.64 672.191 1624.29 664.655 1619.47 C 645.031 1606.75 624.974 1594.72 604.518 1583.39 C 589.408 1575.12 578.126 1573.95 565.836 1567.99 C 565.076 1564.49 565.144 1566.3 566.429 1562.37 C 584.942 1557.16 678.3 1618.15 695.487 1630.49 C 706.055 1618.98 752.269 1553.67 759.716 1549.54 C 763.614 1550.41 767.515 1553.75 770.883 1556.17 C 776.307 1550.25 781.831 1544.55 786.306 1537.87 C 773.293 1526.26 759.922 1514.99 746.844 1503.38 C 701.404 1463.02 662.322 1419.22 624.754 1371.65 C 616.837 1379.72 599.563 1399.18 591.628 1405.17 C 587.986 1404.66 589.579 1405.33 586.683 1403.03 L 586.551 1400.89 C 589.111 1395.8 607.232 1378.65 612.503 1373.06 C 660.192 1322.48 709.515 1273.6 757.955 1223.74 C 700.072 1165.66 662.258 1090.61 650.025 1009.53 C 647.729 993.485 647.239 977.319 646.863 961.139 C 612.068 960.726 575.529 961.005 540.71 961.335 C 555.311 1076.18 603.546 1192.76 667.034 1288.95 C 652.07 1304.5 622.021 1333.82 609.193 1349.33 C 522.476 1223.91 482.711 1110.33 458.779 961.102 L 445.065 961.24 C 402.808 961.839 395.862 978.971 396.624 1017.28 C 397.369 1054.75 395.924 1092.72 396.88 1130.26 C 405.196 1130.02 418.266 1128.3 424.604 1133.38 C 428.971 1144.43 425.297 1187.6 426.455 1201.95 C 427.5 1214.89 426.77 1235.15 425.108 1248.21 C 424.59 1249.14 424.142 1250.13 422.92 1250.23 C 400.419 1251.94 291.233 1256.02 278.625 1249.02 C 274.757 1236.59 277.587 1173.69 276.4 1157.3 C 276.09 1153.03 275.848 1135.43 279.876 1132.8 C 286.17 1128.68 299.999 1130.12 307.764 1130.34 C 306.851 1109.56 307.4 1086.54 307.455 1065.5 L 307.606 962.278 C 307.677 892.682 307.381 822.956 307.592 753.358 C 307.633 739.681 310.21 728.458 320.634 718.713 C 327.459 712.334 334.091 709.875 343.316 708.808 C 353.84 707.591 365.84 708.012 376.604 708.002 L 431.462 707.976 C 480.718 707.915 537.067 706.352 585.62 707.969 C 586.413 684.868 585.817 658.319 585.789 634.947 C 621.31 635.899 659.438 635.231 695.153 635.236 C 705.286 645.033 716.29 656.889 726.198 667.056 C 719.298 676.4 709.781 686.704 702.271 696.088 C 691.051 710.251 680.974 725.283 672.134 741.042 L 618.572 741.056 C 608.822 741.063 595.233 740.663 585.879 741.746 L 585.941 714.93 C 518.64 714.141 450.442 715.672 383.275 714.687 C 311.465 713.634 314.278 724.62 314.355 792.066 L 314.382 866.075 L 314.84 1130.71 C 324.047 1129.7 338.418 1130.14 348.03 1130.15 L 348.178 879.961 L 348.057 815.343 C 348.026 803.681 347.423 782.513 349.482 771.802 C 351.41 762.215 357.069 753.786 365.213 748.372 C 376.965 740.677 413.986 742.871 428.638 742.862 L 510.674 742.859 C 520.995 742.86 578.097 742.09 584.84 743.605 L 585.169 749.937 L 448.8 750.072 C 426.486 750.079 403.199 749.512 381.018 751.069 C 348.792 753.332 355.185 800.48 355.295 823.556 L 355.451 896.776 C 355.279 972.082 353.71 1055.2 355.885 1130.06 L 389.339 1130.11 L 389.054 1039.29 C 389.037 1016.64 384.711 983.995 401.585 967.15 C 416.904 951.856 438.372 953.618 458.189 953.775 C 449.424 893.459 451.839 832.655 450.054 772.653 C 474.441 773.08 505.621 773.3 530.221 772.962 L 530.114 803.021 C 530.508 857.059 533.762 900.321 539.362 953.993 C 591.102 954.023 647.798 955.334 698.963 954.121 C 699.584 886.083 714.943 826.578 752.437 768.939 C 760.85 756.005 773.62 738.421 784.593 727.649 L 785.678 726.6 C 776.459 717.426 767.303 708.189 758.211 698.89 C 747.564 711.579 735.785 725.091 726.429 738.592 C 693.756 785.735 674.597 836.387 665.566 892.66 C 641.945 892.082 609.447 891.477 586.061 893.003 L 585.879 804.298 C 585.847 786.985 586.319 766.99 585.169 749.937 C 611.905 748.278 647.908 749.918 676.083 749.178 C 688.669 728.019 714.985 689.996 732.713 673.613 C 740.236 680.373 749.56 691.26 756.511 698.99 C 758.561 697.004 760.98 694.929 763.13 693.006 C 741.759 670.713 720.175 650.124 698.534 627.05 C 666.028 626.319 617.667 625.897 585.577 627.115 C 585.859 615.733 586.285 598.876 584.875 587.781 C 676.469 576.425 765.873 551.55 850.171 513.968 C 849.454 533.974 850.027 558.341 850.284 578.354 C 910.985 550.813 954.294 540.536 1020.24 538.953 L 1020.06 360.8 C 1001.9 374.119 979.146 387.981 959.658 399.728 C 849.994 466.165 728.767 511.288 602.353 532.723 C 580.25 536.484 552.335 540.855 530.057 542.281 C 530.146 588.668 529.33 639.357 530.759 685.326 C 504.218 684.757 476.728 685.057 450.113 685.038 C 450.666 612.429 451.179 536.163 450.112 463.684 z M 1176.67 569.194 C 1223.93 585.419 1282.35 627.28 1317.55 661.998 C 1342.98 636.225 1373.54 604.573 1399.73 580.118 C 1416.94 580.037 1459.06 578.797 1474.59 580.714 L 1476.33 583.083 L 1475.04 580.905 L 1475.76 584.327 C 1473.76 585.823 1471.63 586.931 1469.09 586.989 C 1447.4 587.481 1425.22 586.41 1403.56 587.025 C 1376.13 612.956 1350.22 641.228 1322.75 666.987 C 1333.62 678.378 1344.37 689.892 1354.98 701.525 C 1409.21 702.085 1463.64 701.35 1517.88 701.554 L 1517.75 541.98 C 1491.23 539.795 1471.54 536.33 1445.76 532.804 C 1395.88 523.872 1333.25 508.991 1285.34 492.129 C 1306.56 472.177 1337.24 439.252 1358.46 421.953 C 1435.33 445.559 1517.64 461.363 1598.17 463.508 L 1598.04 701.061 C 1628.97 701.295 1682.24 711.729 1675.37 671.118 C 1674.32 664.889 1675.48 649.512 1675.48 642.535 L 1675.36 570.305 L 1675.19 459.616 C 1675.2 440.509 1675.87 421.25 1675.25 402.168 C 1675.06 396.301 1675.36 388.027 1669.71 384.376 C 1664.17 380.79 1398.48 381.807 1370.05 382.333 C 1360.25 388.739 1330.89 419.229 1320.47 429.225 C 1272.19 475.523 1224.25 522.181 1176.67 569.194 z M 733.879 1260.54 C 784.322 1307.49 826.687 1338.04 893.17 1361.01 C 892.9 1376.71 892.826 1392.42 892.945 1408.12 C 892.978 1415.37 893.603 1432.14 892.382 1438.6 C 889.698 1439.96 891.174 1439.55 887.559 1438.79 C 885.116 1436.04 885.428 1435.82 885.535 1431.55 C 886.055 1410.77 886.588 1387.01 885.512 1366.38 C 828.559 1347.95 770.851 1307.41 728.421 1265.64 C 713.433 1279.59 697.624 1296.44 683.179 1311.2 C 713.968 1351.32 743.636 1387.04 781.036 1421.43 C 797.207 1436.3 814.16 1450.08 830.917 1464.27 C 838.034 1458.23 851.611 1444.66 858.887 1441.47 C 874.748 1454.4 861.649 1470.42 851.573 1480.77 C 873.976 1497.41 895.872 1514.65 918.866 1530.52 C 926.837 1536.02 938.305 1544.97 946.476 1549.38 C 947.137 1541.52 947.714 1538.69 949.662 1531.01 C 938.824 1500.35 915.794 1458.35 929.504 1426.44 C 932.137 1420.31 939.036 1415.95 943.283 1410.95 C 945.412 1408.42 946.431 1403.61 948.105 1400.75 C 961.834 1377.31 993.411 1378.94 1016.2 1379.88 C 1037.01 1378.35 1042.17 1377.81 1061.71 1370.02 C 1082.6 1383.17 1090.06 1406.22 1069.18 1423.52 C 1080.02 1443.9 1073.14 1450.63 1083.47 1469.72 C 1086.69 1475.68 1096.28 1484.83 1095.19 1491.42 C 1092.03 1497.13 1086.98 1498.59 1081.03 1501.26 C 1077.85 1553.52 1086.43 1545.26 1038.56 1551.01 C 1036.19 1558.23 1033.44 1566.08 1031.38 1573.32 C 1034.91 1579.23 1036.45 1581.68 1040.82 1587 C 1117.68 1541.76 1191.9 1487.91 1258.67 1428.44 C 1271.01 1417.44 1284.33 1405.1 1295.42 1392.85 C 1279.13 1372.43 1262.56 1352.23 1245.72 1332.26 C 1235.38 1319.97 1217.98 1299.95 1209.07 1286.91 C 1148.12 1320.29 1098.21 1336.19 1027.85 1336.99 C 1028.01 1343.84 1029.3 1352.37 1024.83 1357.42 L 1023.14 1356.95 C 1019.43 1350.14 1020.51 1344.6 1020.72 1336.75 C 997.508 1336.15 973.818 1335.13 950.936 1330.27 C 894.028 1318.19 839.995 1293.1 794.359 1256.93 C 782.506 1247.53 774.447 1239.1 763.634 1229.67 C 753.845 1239.64 743.125 1250.19 733.879 1260.54 z M 1473.42 1686.06 C 1438.3 1650.61 1401.28 1607.11 1366.82 1570.08 C 1349.61 1584.2 1332.3 1598.18 1314.88 1612.03 C 1351.79 1660.38 1389.11 1708.7 1426.2 1756.93 C 1436.59 1770.43 1449.38 1779.96 1466.46 1783.1 C 1495.55 1783.6 1520.01 1763.14 1543.74 1747.94 L 1626.81 1694.68 C 1637.85 1687.55 1650.92 1678.58 1662.53 1672.27 C 1664.44 1671.23 1665.1 1672.17 1666.56 1673.12 C 1667.71 1684.16 1630.3 1762.81 1625.96 1779.39 C 1625.12 1782.62 1617.49 1801.48 1615.95 1804.84 C 1652.29 1805.1 1688.62 1805.13 1724.96 1804.94 L 1724.82 1803.91 C 1717.41 1746.23 1723.62 1646.38 1703.23 1596.59 C 1695.73 1578.3 1683.83 1563.05 1668.26 1550.92 C 1660.98 1545.24 1652.91 1539.47 1644.88 1534.91 C 1609.56 1567.39 1572.88 1598.08 1537.03 1630.06 L 1497.19 1665.72 C 1491.14 1671.13 1479.76 1681.78 1473.42 1686.06 z M 815.495 1701.7 C 845.044 1701.78 878.537 1701.08 907.819 1702.08 C 910.252 1690.17 925.287 1626.55 930.734 1618.69 L 932.79 1617.65 C 936.046 1619.11 934.882 1617.99 936.562 1620.94 C 930.432 1647.64 921.312 1673.85 915.182 1701.56 C 964.412 1701.75 995.986 1694.22 1001.42 1757.17 C 1002.72 1772.24 1005.09 1789.99 1006.74 1805.29 C 1015.88 1805.26 1031.89 1805.67 1040.44 1804.63 L 1039.77 1799.93 C 1032.59 1775.72 1027.86 1750.86 1020.73 1726.63 C 1019.85 1723.65 1020.34 1716.91 1023.84 1715.65 C 1028.06 1718.14 1030.74 1732.39 1032.16 1737.88 C 1037.85 1760.28 1043.31 1782.73 1048.55 1805.24 C 1083.03 1805.55 1117.92 1804.67 1151.99 1805.01 C 1141.39 1774.81 1131.46 1744.38 1122.22 1713.74 C 1115.52 1691.63 1108.83 1659.08 1094.66 1641.37 C 1081.19 1624.53 1054.14 1611.54 1035.25 1601.13 C 1008.02 1587.01 955.972 1582.43 924.257 1583.03 C 910.964 1591.14 897.543 1599.03 883.998 1606.71 C 836.619 1633.53 824.187 1645.99 815.495 1701.7 z M 1109.61 1647.68 C 1117.22 1668.46 1123.04 1690.29 1129.56 1711.51 C 1139.25 1742.81 1149.28 1774.01 1159.64 1805.1 L 1175.77 1804.94 C 1174.51 1801.2 1173.12 1797.35 1172.09 1793.55 C 1176.98 1772.93 1197.83 1737.01 1206.94 1715.82 C 1220.2 1684.97 1218.22 1683.03 1217.75 1648.99 C 1211.07 1646.31 1207.95 1644.61 1206.79 1637.11 C 1204.5 1622.22 1224.62 1621.62 1234.77 1622.66 C 1245.2 1623.73 1266.03 1619.34 1271.48 1630.24 C 1273.1 1651.4 1263.99 1642.5 1262.3 1650.08 C 1260.3 1659.03 1260.39 1683.69 1262.51 1693.6 C 1273.98 1727.52 1296.53 1758.6 1305.22 1793.29 C 1305.89 1796.01 1303.83 1802.12 1302.95 1804.98 C 1337.55 1805.25 1378.01 1804.23 1412.05 1805.57 C 1415.42 1792.11 1420.42 1779.91 1424.15 1766.92 C 1406.37 1746.77 1385.8 1717.68 1369.26 1696.08 C 1361.15 1685.48 1306.43 1615.13 1306.39 1611 C 1309.12 1605.38 1315.51 1601.26 1320.6 1597.24 C 1309.63 1581.99 1305.75 1585.4 1293.27 1575.26 C 1287.1 1570.25 1268.32 1547.23 1270.11 1538.09 C 1271.63 1530.35 1278.18 1527.04 1276.65 1523.94 C 1255.83 1542.04 1232.82 1559.53 1210.56 1575.92 C 1177.7 1600.1 1143.78 1625.43 1109.61 1647.68 z M 328.348 1805.04 L 391.485 1805.05 C 396.168 1788.02 421.064 1713.23 421.046 1702.41 C 421.041 1699.5 420.702 1694.84 422.191 1692.38 C 428.989 1691.21 439.831 1710.88 443.777 1716.49 L 477.856 1764.19 C 486.552 1776.47 498.48 1794.61 508.809 1804.93 C 544.703 1805.51 580.602 1805.72 616.5 1805.59 C 626.567 1805.64 637.228 1805.5 647.241 1805.86 C 647.244 1792.01 647.173 1778.17 647.026 1764.32 C 620.118 1761.58 569.57 1751.17 542.45 1745.21 C 527.289 1718.85 511.967 1692.58 496.485 1666.4 C 492.328 1659.35 469.627 1622.17 469.736 1617.17 C 471.69 1614.35 470.432 1615.19 473.366 1614.21 C 476.818 1616.03 480.015 1621.77 481.863 1625.24 C 502.058 1663.23 527.907 1700.4 547.254 1738.58 L 558.875 1740.58 C 559.399 1733 560.856 1718.09 558.024 1711.74 C 550.894 1695.76 539.907 1678.06 531.036 1662.94 L 484.134 1582.36 C 481.367 1577.6 466.861 1550.09 464.211 1548.68 C 446.202 1561.23 423.387 1572.62 408.922 1588.81 C 392.87 1607.73 386.307 1631.68 378.57 1654.71 C 373.345 1670.27 367.436 1685.76 362.604 1701.44 C 351.93 1736.08 338.945 1770.42 328.348 1805.04 z M 1028.05 621.279 C 1104.03 624.804 1160.91 643.061 1222.38 689.489 C 1236.6 700.224 1245.54 709.644 1258.48 721.139 L 1271.09 708.358 L 1284.08 695.46 C 1208.31 623.069 1131.85 590.639 1027.87 585.088 C 1027.92 597.031 1027.81 609.374 1028.05 621.279 z M 1292.6 940.716 C 1296.97 935.814 1301.7 930.012 1306.91 926.208 C 1309.38 927.513 1308.43 926.603 1309.83 929.084 C 1308.3 936.068 1294.65 948.084 1289.11 956.275 C 1283.6 950.242 1271.27 937.476 1267.46 931.371 C 1268.95 928.368 1267.91 929.749 1271.56 927.798 C 1276.23 929.266 1281.63 936.664 1284.98 940.695 C 1281.12 874.798 1262.39 821.681 1218.41 771.376 C 1213.73 775.98 1187.24 801.097 1185.44 804.9 L 1185.85 805.813 C 1218.42 843.034 1231.06 879.303 1238.13 926.768 C 1231.19 926.419 1224.24 926.173 1217.29 926.03 C 1240.9 949.385 1265.28 976.869 1288.67 1001.15 C 1305.19 979.589 1337.97 950.138 1357.45 927.114 L 1340.35 927.138 C 1334.85 866.064 1315.96 805.225 1277.81 756.475 C 1273.19 750.58 1263.33 736.685 1257.69 732.647 C 1246.39 744.141 1234.53 754.697 1223.41 765.918 C 1268.07 810.699 1289.65 878.796 1292.6 940.716 z M 976.738 680.534 C 987.587 678.431 998.597 677.268 1009.65 677.058 C 1005.36 673.324 998.256 668.022 996.394 663.054 C 997.731 660.396 996.783 661.595 1000.41 660.162 C 1005.82 661.782 1020.84 676.561 1025.76 681.117 L 1024.83 681.8 C 1016.91 687.749 1007.57 698.884 999.329 701.853 L 997.875 700.313 C 1000.72 691.565 1003.64 691.079 1008.96 684.047 C 996.941 685.2 985.758 687.35 974.063 688.627 C 917.88 700.145 874.639 723.872 834.285 764.88 C 845.938 775.652 857.156 786.887 867.909 798.558 C 897.704 763.693 958.952 734.211 1004.72 732.7 L 1005.1 752.115 C 1027.51 731.76 1051.87 704.896 1073.14 682.598 C 1050.08 659.816 1028.64 634.881 1005.04 611.69 L 1004.98 629.801 C 985.796 629.986 967.62 633.764 949.162 638.38 C 883.741 654.743 843.605 681.4 795.577 726.228 C 806.46 735.558 819.094 748.949 829.234 759.225 C 869.43 717.99 919.473 689.53 976.738 680.534 z M 1127.88 1060.53 C 1141.68 1074.43 1157.84 1092.08 1171.52 1105.12 L 1179.2 1097.1 C 1215.99 1052.86 1230.02 1017.99 1232.91 961.006 C 1213.04 961.067 1191.78 960.785 1172.01 961.219 C 1170.81 998.809 1154.98 1034.44 1127.88 1060.53 z M 801.374 1190.93 L 768.654 1224.11 C 782.528 1236.74 795.003 1248.09 810.104 1259.27 C 857.94 1294.69 933.239 1326.24 992.751 1328.05 C 1001.73 1328.48 1011.93 1329.2 1020.82 1329.06 C 1020.16 1313.73 1020.24 1296.49 1020.57 1281.12 C 938.12 1278.47 860.459 1249.42 801.374 1190.93 z M 981.773 1161.35 C 994.302 1164.19 1007.4 1165.31 1020.22 1166.01 L 1020.23 1103.03 C 983.329 1097.98 955.648 1090.78 927.39 1064.11 C 912.171 1079.61 896.807 1094.97 881.3 1110.18 C 911.425 1134.93 942.454 1154.28 981.773 1161.35 z M 759.438 917.229 C 769.326 926.558 778.143 936.474 787.674 946.116 C 803.717 962.347 819.76 978.277 835.355 994.96 L 818.213 994.812 C 828.719 1036.68 844.328 1073.71 876.346 1104.28 C 890.435 1090.11 907.97 1073.38 921.113 1058.74 C 894.284 1029.81 881.605 1000.78 878.504 961.479 C 862.919 961.752 835.4 961.068 820.841 962.368 C 802.153 943.053 778.204 915.913 759.606 898.211 C 739.139 918.144 717.039 939.705 698.244 961.029 C 683.779 961.251 667.511 960.969 653.298 961.533 C 654.978 1060.06 695.744 1147.68 763.106 1218.45 L 795.417 1185.9 C 739.837 1126.92 716.548 1074.31 702.39 995.504 C 695.569 995.185 689.739 994.914 682.921 995.12 C 702.645 973.022 725.182 952.123 745.943 930.924 C 750.31 926.465 754.928 921.454 759.438 917.229 z M 496.72 1453.91 C 475.357 1435.69 464.146 1463.47 480.731 1474.93 C 484.74 1477.7 490.057 1477.53 494.861 1477.58 C 494.158 1505.08 492.261 1523.54 471.624 1544.13 C 476.549 1552.66 484.352 1567.55 489.689 1574.85 C 497.144 1577.66 499.773 1578.36 507.607 1579.86 C 532.566 1573.11 499.691 1518.41 497.793 1500.28 C 514.247 1500.93 545.063 1520.58 562.496 1507.05 C 571.193 1500.3 570.47 1477.87 568.869 1467.77 C 573.006 1464.82 576.71 1462.11 581.113 1459.53 C 575.844 1453.96 568.079 1446.45 563.951 1440.09 C 559.183 1432.75 556.488 1408.08 550.843 1402.64 C 541.314 1429.3 524.915 1447.02 496.72 1453.91 z M 996.026 740.362 C 948.197 748.778 906.902 769.147 873.182 804.293 C 886.042 815.638 909.769 838.344 921.172 851.153 C 949.883 822.955 979.941 809.61 1020.2 807.934 L 1019.97 749.586 C 1011.73 757.418 1003.65 765.627 996.48 774.462 C 997.065 765.99 997.915 749.47 996.848 741.106 L 996.026 740.362 z M 1023.99 953.914 C 1031.71 945.934 1039.55 938.063 1047.49 930.305 C 1088.24 889.044 1132.71 844.069 1174.69 803.939 C 1140.59 772.144 1110.29 752.826 1063.55 742.467 C 1054.66 740.498 1040.24 738.579 1031.22 738.917 C 1030.16 738.951 1029.11 739.004 1028.06 739.077 C 1027.14 762.56 1027.65 792.068 1027.88 815.938 C 989.48 816.126 953.483 828.939 926.087 856.482 C 946.508 876.349 966.727 896.422 986.742 916.698 C 997.725 927.775 1012.64 943.48 1023.99 953.914 z M 1044.33 1464.81 L 1024.92 1472.25 C 1015.57 1458.27 1002.74 1458.16 1000.94 1474.99 C 1000.24 1481.9 1002.38 1488.79 1006.88 1494.08 C 1009.43 1497.09 1012.64 1498.26 1016.22 1499.8 C 999.36 1529.26 993.186 1535.34 957.714 1531.97 L 953.582 1548.92 L 970.322 1550.37 C 990.691 1553.05 1007.55 1557.25 1024.8 1569.11 C 1026.36 1562.97 1029.21 1548.21 1034 1544.84 C 1044.17 1537.67 1068.58 1549.08 1071.61 1534.09 C 1074.08 1521.88 1067.12 1503.28 1077.49 1494.04 C 1078.49 1493.15 1085.65 1490.15 1087.26 1489.47 C 1082.41 1482.39 1071.38 1466.53 1069.58 1458.52 C 1067.56 1449.52 1068.42 1435.42 1062.76 1426.03 C 1039.87 1435.5 1039.8 1441.13 1044.33 1464.81 z M 868.677 809.604 C 842.318 843.032 824.101 876.372 818.533 919.563 C 817.213 929.803 812.935 945.469 821.731 952.833 C 828.911 955.056 856.716 954.027 866.081 953.919 L 878.718 953.273 C 878.876 914.574 891.752 886.613 915.328 856.752 C 904.749 846.159 878.352 817.402 868.677 809.604 z M 1420.09 785.963 C 1410.97 793.962 1386.26 818.152 1378.26 827.243 C 1393.07 864.519 1401.25 913.774 1401.27 954.071 L 1477.5 954.017 L 1508.91 954.015 C 1516.39 905.583 1518.45 834.748 1517.52 786.135 C 1486.5 785.884 1451.01 785.233 1420.09 785.963 z M 1060 1279.83 L 1060.07 1309.67 C 1053.46 1302.49 1037.27 1283.77 1029.92 1279.89 L 1028.42 1280.35 C 1027.75 1285.08 1027.26 1324.77 1028.21 1329.39 C 1088.51 1327.51 1152.54 1314.06 1203.92 1280.83 C 1199.75 1275.86 1176.58 1247.33 1173.66 1245.93 C 1142.11 1263.41 1095.7 1276.27 1060 1279.83 z M 1027.83 1167.05 C 1034.2 1159.34 1052.57 1138.25 1059.9 1132.76 C 1059.99 1142.42 1059.8 1153.9 1060.39 1163.41 C 1065.21 1162.22 1073.64 1159.86 1078.25 1159.08 C 1115.52 1148.98 1137.09 1134.76 1166.13 1110.71 C 1157.73 1102.25 1082.22 1025.11 1080.16 1024.57 C 1063.42 1036.97 1049.2 1043.66 1027.96 1045.27 C 1027.63 1085.86 1027.59 1126.46 1027.83 1167.05 z M 1145.28 599.037 C 1206.17 622.143 1242.87 644.824 1289.53 689.915 C 1297.27 682.381 1304.9 674.734 1312.41 666.979 C 1271.3 627.746 1223.29 596.437 1170.81 574.626 C 1162.45 582.911 1153.93 591.049 1145.28 599.037 z M 824.045 764.741 C 814.056 754.638 800.996 740.82 790.578 731.599 C 733.739 798.405 712.465 854.332 706.13 941.008 C 719.812 926.271 744.897 899.237 759.606 886.488 C 776.724 903.746 792.999 921.862 809.784 939.45 C 808.974 924.363 813.18 901.74 817.51 887.257 C 828.494 853.304 840.4 831.518 863.31 804.036 C 852.286 792.942 840.685 781.572 830.068 770.159 C 810.233 793.099 795.354 814.395 784.252 842.732 C 782.366 847.547 779.524 856.958 775.116 857.846 L 772.098 856.518 C 769.86 850.19 774.873 842.913 777.635 836.597 C 789.333 809.846 804.926 786.881 824.045 764.741 z M 1232.89 953.546 C 1225.49 945.978 1204.92 925.92 1199.37 918.572 C 1209.42 919.004 1219.88 919.609 1229.91 919.742 C 1219.29 871.387 1210.94 849.176 1179.55 809.98 C 1152.44 836.153 1120.33 871.765 1093.06 895.761 C 1108.9 914.563 1116.64 938.875 1114.6 963.374 C 1112.59 985.057 1101.8 1004.62 1086.66 1019.92 C 1097.07 1028.47 1111.86 1044.53 1122.07 1054.65 C 1126.56 1049.97 1131.11 1045.59 1134.88 1040.33 C 1155.07 1013.58 1164.4 987.64 1163.97 953.762 C 1182.07 953.999 1215.35 954.833 1232.89 953.546 z M 1276.84 1540.17 C 1282.46 1548.61 1291.24 1562.51 1298.6 1568.83 C 1310.34 1578.9 1314.74 1575.24 1323.92 1589.43 L 1325.91 1592.26 C 1329.1 1591.38 1350.75 1572.94 1355.12 1569.35 C 1346.22 1554.97 1347.59 1541.24 1343.74 1525.54 C 1343.28 1523.64 1340.72 1520.75 1339.47 1519.27 C 1331.56 1511.38 1323.38 1502.32 1315.29 1494.68 C 1307.03 1486.87 1294.5 1468.84 1285.48 1463.8 C 1282.77 1466.49 1281.42 1467.26 1280.86 1471.01 C 1283.43 1486.3 1309.57 1498.4 1307.38 1509.93 C 1303.15 1511.33 1299.11 1509.27 1297.69 1510.29 C 1290.78 1515.27 1280.98 1533.27 1276.84 1540.17 z M 1045.92 1225.42 C 1050.18 1228.72 1055.74 1232.33 1058.38 1236.78 C 1058.43 1240.26 1058.98 1238.74 1056.45 1241.4 C 1050.92 1241.72 1035.1 1226.55 1029.46 1221.83 C 1034.72 1216.53 1048.6 1200.76 1054.64 1200.43 C 1056.98 1202.49 1056.29 1201.21 1056.52 1204.52 C 1053.77 1209.74 1050.3 1212.87 1046.24 1217.15 C 1104.93 1214.11 1160.4 1187.49 1203.43 1148.14 C 1192.6 1137.55 1181.99 1126.76 1171.6 1115.76 C 1136.1 1147.97 1099.81 1165.87 1052.03 1172.32 L 1052.1 1152.25 C 1033.47 1172.93 1007.03 1200.52 987.274 1220.32 C 1006.54 1241.08 1035.46 1270.27 1052.78 1291.24 C 1052.5 1284.71 1052.32 1278.98 1052.42 1272.44 C 1136.72 1262.03 1176.98 1241.65 1241.43 1188.25 C 1241.14 1184.94 1213.26 1159.05 1208.55 1153.92 C 1158.76 1199.27 1112.06 1217.89 1045.92 1225.42 z M 1496.6 1443.29 C 1513.75 1450.71 1535.17 1469.9 1548.94 1467.47 C 1567.8 1459.64 1574.36 1445.61 1572.26 1426.07 C 1570.47 1409.37 1572.84 1404.55 1583.16 1392.18 C 1564.63 1387.03 1552.14 1384.49 1533.17 1378.37 C 1530.8 1382.44 1525.13 1391.75 1524.18 1396.01 C 1519.24 1417.98 1509.78 1426.26 1496.6 1443.29 z M 1028.04 578.116 C 1072.97 579.913 1095.01 583.528 1137.89 596.171 L 1150.38 584.309 C 1154.61 580.134 1158.94 576.055 1163.35 572.074 C 1124.64 557.809 1069.48 544.356 1027.98 546.906 C 1027.92 557.227 1027.72 567.821 1028.04 578.116 z M 1202.18 1745.82 C 1218.82 1745.44 1235.45 1745.58 1252.04 1745.22 C 1260.12 1745.16 1268.38 1745.2 1276.44 1745.02 C 1252.36 1695.98 1254.43 1702.52 1253.26 1648.15 C 1244.42 1648.13 1233.75 1648.38 1225.06 1647.92 C 1225.01 1700.66 1224.66 1697.5 1202.18 1745.82 z M 1627.64 1513.22 C 1604.78 1528.12 1583.38 1543.93 1560 1558.2 C 1563.98 1568.02 1569.04 1578.02 1572.7 1587.67 C 1592.34 1570.68 1619.75 1544.87 1639.22 1529.84 C 1634.92 1524.47 1630.93 1519.29 1627.64 1513.22 z M 1349.62 961.709 C 1349.04 977.484 1348.37 991.454 1345.88 1007.14 L 1360.04 1007.42 L 1391.26 1006.96 C 1393.16 992.018 1394.13 976.971 1394.15 961.907 C 1390.75 961.789 1384.86 961.384 1381.67 961.489 L 1349.62 961.709 z M 856.267 1452.75 C 847.285 1460.74 817.948 1486.01 813.235 1494.1 C 799.368 1517.89 802.849 1540.73 776.475 1559.72 L 797.34 1576.25 C 800.839 1572.58 807.981 1560.03 809.914 1558.47 C 824.72 1546.48 830.193 1536.38 838.52 1519.19 C 840.466 1515.17 845.389 1509.84 848.24 1505.83 L 842.544 1495.35 L 830.414 1491.87 L 831.178 1490.89 C 838.151 1482.07 858.562 1464.95 858.254 1456 L 856.267 1452.75 z M 921.301 861.847 C 897.624 891.429 888.172 915.705 885.983 953.409 L 919.5 953.64 L 933.921 953.92 C 934.379 932.04 939.661 913.21 955.086 896.86 C 944.91 885.935 930.607 872.552 921.301 861.847 z M 931.09 1574.77 C 961.961 1577.16 994.556 1578.87 1024.21 1588.03 L 1029.55 1589.49 L 1031 1588.52 C 1030.55 1584.11 1024.55 1579.24 1021.15 1576.45 C 1000.57 1559.56 966.707 1557.11 941.165 1556.05 C 937.027 1562.64 934.526 1567.74 931.09 1574.77 z M 654.992 1779.07 L 654.949 1805.73 C 660.301 1805.79 674.45 1806.19 678.942 1804.98 C 693.05 1801.18 695.214 1796.05 711.106 1794.45 C 716.16 1796.55 720.314 1798.18 725.112 1800.9 C 734.326 1806.42 738.178 1805.05 748.905 1805.03 C 712.777 1775.05 713.766 1777.66 668.421 1778.51 L 654.992 1779.07 z M 1261.72 1640.8 C 1263.61 1637.88 1264.03 1637.81 1263.86 1634.3 C 1258.39 1628.02 1225.4 1630.5 1215.91 1631.17 C 1215.28 1635.69 1214.81 1634.47 1216.4 1638.15 C 1223.8 1643 1250.5 1640.18 1261.72 1640.8 z M 1430.5 1773.5 C 1426.99 1784.01 1423.56 1794.67 1419.59 1805 L 1491.69 1805 L 1495.08 1785.64 C 1469.83 1797.19 1450.5 1789.89 1430.5 1773.5 z M 343.562 1193.24 C 342.134 1202.38 340.188 1213.03 339.652 1222.13 L 358.25 1222.06 C 361.515 1221.98 362.115 1222.51 364.474 1221.02 C 363.132 1211.73 361.591 1202.47 359.85 1193.24 L 367.863 1185.95 C 368.679 1171.56 365.737 1162.01 349.228 1160.89 C 334.25 1169.4 329.177 1180.94 343.562 1193.24 z M 1539.94 1558.23 C 1508.8 1580.78 1491.17 1592.24 1477.61 1630.09 C 1474.57 1638.59 1468.33 1657.37 1464.9 1665.06 L 1471.35 1672.64 L 1473.65 1674.87 C 1476.67 1673.8 1516.12 1637.79 1520.46 1633.52 C 1527.37 1608.81 1533.63 1583.56 1540.4 1558.71 L 1539.94 1558.23 z M 1220.5 1270.93 C 1311.5 1209.4 1369.53 1124.57 1390.27 1016.16 L 1390.53 1014.75 C 1374.82 1014.09 1360.63 1014.68 1345.1 1014.56 L 1344.64 1016.02 C 1342.42 1023.25 1340.99 1031.62 1339.03 1039.07 C 1315.39 1128.98 1260.74 1195.77 1180.48 1241.94 C 1190.85 1253.45 1200.65 1265.68 1210.71 1277.51 L 1220.5 1270.93 z M 1208.75 1143.12 C 1231.06 1119.13 1244.67 1102.26 1259.95 1072.28 C 1263.76 1064.26 1268.07 1049.46 1273.99 1045.66 C 1277.29 1045.39 1275.89 1044.91 1278.48 1046.37 C 1280.02 1052.41 1261.25 1087.3 1257.51 1093.58 C 1245.37 1113.7 1230.7 1132.17 1213.84 1148.54 C 1225.21 1159.73 1236.33 1171.17 1247.2 1182.84 C 1297.95 1130.35 1331.42 1068.64 1339.32 995.412 C 1340.57 983.867 1343.2 968.095 1341.59 956.83 C 1324.77 974.094 1303.27 995.103 1288.07 1012.93 C 1279.05 1000.91 1252.08 973.714 1240.38 961.436 C 1238.93 1019.97 1218.52 1068.95 1176.87 1110.66 C 1187.84 1121.14 1198.47 1131.96 1208.75 1143.12 z M 1623.22 1505.81 C 1617.06 1489.1 1605.19 1486.53 1594.05 1465.96 C 1602.65 1462.33 1607.14 1459.76 1610.9 1450.74 C 1615.62 1439.41 1610.72 1431.5 1598.79 1430.77 C 1592.14 1435.02 1591.08 1437.04 1588.81 1444.6 C 1583.34 1462.79 1581.43 1481.69 1575.47 1499.73 C 1569.84 1516.76 1560.75 1533.85 1555.66 1550.85 C 1564.93 1545.59 1573.74 1539.3 1582.54 1533.26 C 1596.31 1524.42 1609.87 1515.27 1623.22 1505.81 z M 817.293 1561.65 C 813.324 1566.48 804.93 1574.7 805.913 1581.35 C 806.29 1583.9 807.533 1586.91 806.315 1589.51 C 799.525 1604.01 791.3 1618.09 783.545 1632.14 C 766.238 1663.47 748.695 1694.66 730.919 1725.72 C 722.922 1739.66 711.91 1757 704.673 1770.8 C 723.941 1771.76 737.22 1785.72 751.56 1797.08 C 755.388 1800.11 758.864 1803.79 763.264 1805.66 C 769.459 1805.39 776.414 1804.94 782.546 1804.92 C 781.206 1792.31 780.16 1779.31 778.818 1766.78 C 775.599 1736.72 771.948 1710.82 808.106 1701.71 C 814.273 1648.6 828.503 1629.33 873.953 1603.63 C 867.888 1598.88 820.098 1562.39 817.293 1561.65 z M 757.699 958.541 C 753.112 964.322 739.524 979.432 739.818 986.177 C 743.662 986.355 746.744 983.582 749.449 981.134 C 751.67 979.104 753.863 977.044 756.026 974.953 C 759.394 1046.37 793.156 1109.8 845.463 1157.69 C 869.596 1179.78 925.577 1214.94 959.219 1217.47 L 960.362 1212.45 C 957.417 1208.17 925.252 1199.3 918.55 1196.24 C 832.015 1156.72 767.688 1070.34 762.57 974.053 L 763.62 974.822 C 767.239 977.51 773.807 984.127 775.802 985.085 L 778.234 984.276 C 779.418 978.35 762.672 961.845 757.699 958.541 z M 796.809 714.663 C 848.334 662.817 924.265 627.596 997.307 622.168 C 997.114 612.064 997.11 601.072 996.653 591.049 C 1004.32 599.159 1012.1 607.159 1020 615.046 L 1020.13 546.615 C 1016.74 546.508 1010.67 546.126 1007.52 546.388 C 947.3 550.953 905.142 559.96 849.984 586.649 C 849.999 600.368 849.745 615.164 850.171 628.797 C 813.288 647.781 792.425 665.32 763.366 693.788 C 770.64 700.4 783.928 715.142 789.969 719.665 C 793.463 718.823 793.736 717.581 796.809 714.663 z M 1032.34 628.248 C 1044.6 643.002 1070.41 668.63 1084.34 682.981 L 1037.27 731.185 C 1090.84 737.519 1143.29 757.422 1179.51 799.109 C 1190.73 787.632 1202.41 777.072 1213.39 765.836 C 1186.72 739.635 1164.45 723.518 1130.25 707.508 C 1122.91 704.429 1107.36 700.137 1103.74 694.819 C 1103.74 691.764 1103.3 693.136 1105.31 690.635 C 1147.27 701.543 1188.35 729.713 1218.64 760.136 C 1229.98 748.449 1241.71 738.021 1252.71 726.827 C 1199 674.87 1146.91 645.935 1072.65 632.62 C 1057.78 629.954 1046.14 630.017 1032.34 628.248 z"/>
<path transform="translate(0,0)" fill="rgb(228,229,232)" fill-opacity="0.00784314" d="M 1341.59 956.83 C 1343.2 968.095 1340.57 983.867 1339.32 995.412 C 1331.42 1068.64 1297.95 1130.35 1247.2 1182.84 C 1236.33 1171.17 1225.21 1159.73 1213.84 1148.54 C 1230.7 1132.17 1245.37 1113.7 1257.51 1093.58 C 1261.25 1087.3 1280.02 1052.41 1278.48 1046.37 C 1275.89 1044.91 1277.29 1045.39 1273.99 1045.66 C 1268.07 1049.46 1263.76 1064.26 1259.95 1072.28 C 1244.67 1102.26 1231.06 1119.13 1208.75 1143.12 C 1198.47 1131.96 1187.84 1121.14 1176.87 1110.66 C 1218.52 1068.95 1238.93 1019.97 1240.38 961.436 C 1252.08 973.714 1279.05 1000.91 1288.07 1012.93 C 1303.27 995.103 1324.77 974.094 1341.59 956.83 z"/>
<path transform="translate(0,0)" fill="rgb(37,39,40)" d="M 1009.65 677.058 C 1005.36 673.324 998.256 668.022 996.394 663.054 C 997.731 660.396 996.783 661.595 1000.41 660.162 C 1005.82 661.782 1020.84 676.561 1025.76 681.117 L 1024.83 681.8 C 1016.91 687.749 1007.57 698.884 999.329 701.853 L 997.875 700.313 C 1000.72 691.565 1003.64 691.079 1008.96 684.047 C 996.941 685.2 985.758 687.35 974.063 688.627 L 974.418 687.187 C 982.883 684.441 998.783 684.941 1006.36 680.893 C 998.445 676.665 983.333 683.526 976.738 680.534 C 987.587 678.431 998.597 677.268 1009.65 677.058 z"/>
<path transform="translate(0,0)" fill="rgb(29,35,43)" d="M 1492.66 1036.34 C 1516.02 1035.69 1554.72 1038.06 1576.1 1036.15 C 1572.21 1058.33 1560.75 1095.77 1553.84 1117.44 C 1517.16 1232.49 1462.4 1330.11 1382.87 1420.7 L 1367.32 1437.11 C 1349.68 1415.88 1331.91 1394.76 1314 1373.75 C 1406.77 1267.19 1456.51 1172.64 1492.66 1036.34 z"/>
<path transform="translate(0,0)" fill="rgb(29,35,43)" d="M 1699.98 1180.88 C 1721.38 1181.89 1748.58 1181.38 1770.02 1181.07 C 1770.1 1187.35 1770.85 1210.33 1769.36 1214.44 L 1767.25 1214.84 C 1745.34 1214.64 1721.93 1214.08 1700.14 1214.72 L 1699.98 1180.88 z"/>
<path transform="translate(0,0)" fill="rgb(29,35,43)" d="M 1621.66 1181.01 C 1637.33 1182.19 1675.33 1181.93 1691.15 1181.13 C 1691.09 1192.39 1691.15 1203.64 1691.32 1214.9 C 1676.6 1213.51 1636.9 1214.36 1621.4 1215.03 C 1622.16 1203.87 1621.79 1192.23 1621.66 1181.01 z"/>
<path transform="translate(0,0)" fill="rgb(29,35,43)" d="M 1662.52 1222.44 C 1679.56 1223.91 1710.54 1222.9 1728.92 1222.75 C 1728.97 1227.61 1729.85 1253.93 1727.81 1256.43 C 1706.4 1256.62 1683.96 1255.81 1662.74 1256.95 C 1661.92 1247.14 1662.13 1232.19 1662.52 1222.44 z"/>
<path transform="translate(0,0)" fill="rgb(29,35,43)" d="M 1662.16 1139.39 C 1681.77 1140.38 1709.3 1139.6 1729.06 1139.31 C 1728.86 1150.43 1729 1162 1728.99 1173.16 C 1708.1 1172.19 1683.61 1172.9 1662.46 1173.02 L 1662.16 1139.39 z"/>
<path transform="translate(0,0)" fill="rgb(37,39,40)" d="M 1693.25 1272.08 C 1696.15 1272.05 1696.87 1271.99 1699.81 1272.47 L 1700.96 1274.53 C 1699.87 1355.24 1701.46 1436.23 1700.84 1516.97 C 1700.83 1518.81 1700.34 1519.63 1699.51 1521.18 C 1697.6 1520.88 1696.41 1520.56 1694.53 1520.1 C 1692.71 1516.85 1693.81 1509.69 1693.8 1505.45 L 1693.53 1458.7 L 1693.64 1340.45 C 1693.65 1318.36 1694.15 1293.89 1693.25 1272.08 z"/>
<path transform="translate(0,0)" fill="url(#Gradient1)" d="M 348.174 1276.6 C 351.161 1276.8 351.729 1276.88 354.635 1277.6 C 356.494 1280.3 355.726 1447.66 355.932 1465.26 L 350.009 1464.7 C 349.651 1464.27 349.293 1463.84 348.935 1463.4 C 347.951 1412.17 348.7 1324.21 348.174 1276.6 z"/>
<path transform="translate(0,0)" fill="rgb(29,35,43)" d="M 1644.31 1139.52 C 1647.73 1139.38 1651.71 1138.77 1654.55 1140.34 C 1655.54 1147.77 1654.88 1164.85 1654.78 1173.03 C 1646.52 1172.57 1637.11 1172.76 1628.75 1172.74 C 1624.99 1172.85 1625.37 1173.39 1622.45 1171.91 C 1619.76 1166.09 1621.12 1147.48 1621.02 1139.67 L 1644.31 1139.52 z"/>
<path transform="translate(0,0)" fill="rgb(29,35,43)" d="M 1737.3 1139.38 C 1747.97 1139.89 1759.3 1139.87 1770.02 1140.02 C 1770.05 1146.73 1770.51 1166.81 1769.58 1172.33 L 1768.09 1173.03 C 1757.82 1173.25 1747.12 1173.08 1736.82 1173.07 C 1736.66 1167.31 1735.64 1142.79 1737.3 1139.38 z"/>
<path transform="translate(0,0)" fill="rgb(29,35,43)" d="M 1737.46 1222.46 L 1770.28 1222.41 C 1770.26 1233.38 1770.32 1244.34 1770.48 1255.31 C 1766.24 1257.03 1742.92 1256.15 1737 1256.07 C 1737.04 1251 1736.7 1225.95 1737.46 1222.46 z"/>
<path transform="translate(0,0)" fill="rgb(29,35,43)" d="M 1653.05 1222.68 L 1654.32 1223.17 C 1655.16 1227.71 1654.73 1250.62 1654.7 1256.63 C 1645.11 1255.94 1632.84 1256.17 1623.05 1256.08 C 1620.86 1253.13 1621.78 1227.92 1621.89 1222.91 L 1653.05 1222.68 z"/>
</svg>